<?xml version="1.0" standalone="no"?>
<!DOCTYPE svg PUBLIC "-//W3C//DTD SVG 20010904//EN"
 "http://www.w3.org/TR/2001/REC-SVG-20010904/DTD/svg10.dtd">
<svg version="1.0" xmlns="http://www.w3.org/2000/svg"
 width="1102.000000pt" height="458.000000pt" viewBox="0 0 1102.000000 458.000000"
 preserveAspectRatio="xMidYMid meet">
<metadata>
Created by potrace 1.16, written by Peter Selinger 2001-2019
</metadata>
<g transform="translate(0.000000,458.000000) scale(0.100000,-0.100000)"
fill="#000000" stroke="none">
<path d="M895 4569 c-105 -16 -177 -30 -194 -38 -56 -27 -99 -52 -122 -70 -10
-8 -38 -26 -62 -40 -83 -49 -128 -82 -134 -99 -3 -9 -27 -40 -52 -69 -153
-174 -243 -309 -281 -424 -12 -35 -26 -68 -31 -73 -12 -13 -12 -63 1 -71 15
-9 12 -79 -5 -111 -11 -22 -13 -53 -8 -143 3 -64 9 -120 14 -125 5 -6 9 -21 9
-35 1 -15 7 -37 15 -51 8 -14 14 -41 15 -60 0 -35 17 -98 40 -155 7 -16 16
-39 19 -50 33 -92 91 -184 164 -259 44 -45 86 -90 93 -101 31 -44 132 -139
182 -171 29 -19 50 -39 47 -45 -4 -6 -41 -7 -103 -3 -97 6 -98 6 -147 -25 -35
-21 -66 -54 -100 -105 l-50 -74 0 -113 c0 -109 1 -114 23 -125 13 -6 32 -25
41 -40 10 -16 25 -35 34 -43 10 -7 17 -17 17 -22 0 -14 100 -103 148 -132 68
-40 88 -47 151 -53 69 -7 114 10 236 92 99 65 112 66 187 3 26 -21 51 -39 56
-39 5 0 20 -8 33 -18 13 -10 60 -33 104 -51 109 -44 145 -63 145 -73 0 -4 8
-8 18 -8 10 0 55 -16 101 -35 46 -20 95 -37 110 -39 14 -2 38 -8 52 -14 46
-18 234 -45 449 -63 134 -11 378 0 444 20 57 18 205 31 232 21 17 -7 48 -7 87
0 34 5 79 10 100 12 21 1 43 8 49 15 6 7 20 13 32 13 11 0 77 9 146 19 69 11
146 23 173 26 26 3 47 10 47 16 0 5 12 9 26 9 14 0 39 9 55 21 22 16 44 20 96
20 125 0 238 7 278 17 49 12 19 11 401 15 348 4 430 -4 539 -53 28 -12 66 -29
85 -38 19 -8 64 -23 100 -33 36 -9 109 -37 163 -62 90 -41 101 -49 133 -98 32
-48 35 -59 29 -101 -6 -47 -5 -48 23 -48 43 0 67 23 68 67 1 21 5 50 9 64 8
31 -22 101 -64 144 -15 17 -64 59 -106 95 -43 36 -95 81 -114 101 -36 36 -96
69 -124 69 -9 0 -28 11 -44 24 -38 31 -71 48 -113 57 -37 8 -75 20 -155 52
-51 20 -119 30 -325 47 -163 13 -434 14 -459 0 -12 -6 -98 -13 -193 -16 -170
-4 -244 -10 -259 -20 -4 -2 -55 -6 -113 -9 -59 -3 -125 -10 -149 -16 -57 -14
-83 -18 -144 -20 -29 -1 -53 -6 -53 -10 0 -9 -57 -29 -84 -29 -12 0 -34 -7
-50 -15 -15 -8 -44 -15 -63 -15 -48 0 -242 -28 -273 -40 -74 -28 -459 -53
-580 -38 -159 19 -214 29 -225 38 -7 6 -48 17 -90 25 -43 9 -83 19 -89 23 -6
5 -27 14 -46 22 -37 13 -82 33 -220 98 -47 22 -93 42 -102 46 -10 3 -18 14
-18 25 0 22 46 81 63 81 24 1 127 118 127 145 0 16 155 211 299 375 49 56 148
245 161 308 7 30 26 66 51 97 47 58 129 236 122 263 -2 10 10 50 28 88 30 62
34 83 44 214 10 122 9 149 -3 173 -8 16 -19 64 -24 106 -6 42 -16 92 -24 111
-7 19 -16 53 -20 75 -6 31 -28 64 -103 150 -53 61 -105 121 -116 135 -11 14
-32 31 -47 39 -15 8 -38 24 -50 35 -62 58 -194 127 -328 172 -30 10 -60 22
-66 26 -10 7 -41 9 -104 7 -8 0 -33 3 -55 7 -67 11 -167 13 -230 3z m265 -464
c85 -12 119 -20 135 -35 12 -11 27 -20 34 -20 22 0 101 -51 101 -66 0 -8 6
-14 13 -14 29 -1 137 -158 137 -200 0 -9 12 -39 26 -66 24 -45 27 -61 30 -179
3 -128 -3 -169 -33 -227 -7 -15 -14 -44 -15 -65 -1 -43 -32 -136 -58 -173 -10
-14 -25 -41 -34 -60 -8 -19 -20 -42 -25 -50 -18 -29 -48 -95 -54 -121 -4 -14
-14 -43 -23 -65 -9 -21 -17 -41 -17 -44 0 -3 -11 -25 -25 -50 -22 -41 -61 -87
-136 -160 -24 -24 -28 -34 -22 -60 5 -26 1 -38 -19 -62 -14 -16 -25 -33 -25
-38 0 -17 -148 -180 -192 -212 -44 -31 -54 -25 -167 102 -35 39 -77 78 -93 86
-15 8 -28 21 -28 30 0 12 11 14 56 10 30 -2 58 -6 61 -10 4 -3 37 -6 74 -6 37
0 71 -4 74 -10 3 -5 22 -10 42 -10 46 0 86 42 102 107 7 26 22 58 33 70 22 23
19 53 -6 53 -8 0 -27 -5 -41 -10 -44 -17 -370 34 -399 61 -6 5 -16 9 -23 9
-13 0 -21 7 -127 109 -45 44 -66 71 -66 88 0 13 -17 47 -37 76 -68 94 -87 146
-103 282 -16 134 -5 305 26 413 13 45 24 87 24 93 0 12 59 90 78 102 6 4 12
16 12 25 0 28 73 116 117 140 23 13 57 37 75 54 20 18 54 36 87 45 30 7 60 18
65 22 12 9 38 15 161 35 44 8 82 14 85 15 3 0 57 -6 120 -14z m-530 -2097 c33
-24 59 -46 59 -50 1 -11 -75 -48 -97 -48 -32 0 -72 38 -72 69 0 29 25 71 42
71 5 0 36 -19 68 -42z m1929 -450 c1 -5 -3 -8 -9 -8 -5 0 -10 12 -9 28 0 24 1
25 9 7 5 -11 9 -23 9 -27z"/>
<path d="M4940 4429 c-14 -5 -37 -29 -52 -52 -30 -48 -68 -150 -68 -184 0 -13
-4 -23 -10 -23 -5 0 -14 -19 -20 -42 -11 -41 -35 -96 -102 -238 -17 -36 -34
-74 -39 -85 -4 -11 -16 -40 -27 -65 -11 -25 -26 -63 -32 -85 -18 -56 -139
-319 -183 -395 -26 -45 -66 -144 -73 -180 -19 -103 -139 -290 -187 -290 -23 0
-97 -57 -97 -76 0 -12 -74 -74 -89 -74 -6 0 -25 -13 -43 -29 -56 -49 -112 -73
-152 -65 -21 3 -36 12 -36 21 0 16 58 131 70 138 4 3 14 29 20 57 12 51 27 84
71 158 12 19 30 57 41 85 11 27 37 73 57 100 46 61 70 106 64 122 -2 6 5 28
16 49 26 48 26 80 1 122 -15 24 -27 32 -49 32 -17 0 -32 4 -35 9 -9 14 -84 51
-88 43 -2 -5 -27 -23 -55 -42 -47 -29 -53 -37 -53 -67 0 -22 -7 -37 -20 -45
-11 -7 -20 -20 -20 -30 0 -9 -8 -24 -17 -34 -15 -15 -32 -60 -46 -122 -2 -7
-12 -19 -24 -27 -22 -16 -27 -27 -69 -160 -31 -101 -52 -136 -74 -130 -10 3
-42 -20 -80 -55 -36 -34 -75 -63 -86 -66 -12 -3 -39 -22 -60 -43 -22 -20 -54
-47 -72 -60 -46 -32 -158 -91 -174 -91 -7 0 -25 -7 -40 -14 -15 -8 -30 -11
-33 -7 -8 13 33 158 55 193 11 18 20 40 20 48 0 8 8 31 18 50 11 19 22 48 26
64 7 26 41 82 101 165 14 19 25 44 25 56 0 13 6 25 13 28 17 6 67 103 67 128
0 10 9 24 20 31 32 20 23 58 -27 121 -18 23 -29 28 -65 28 -24 0 -66 2 -95 5
-70 8 -107 -17 -117 -78 -4 -24 -14 -53 -22 -65 -9 -14 -12 -33 -8 -48 6 -24
-6 -50 -77 -165 -5 -8 -15 -30 -23 -47 -8 -18 -22 -33 -32 -33 -9 0 -34 -18
-55 -40 -22 -22 -66 -60 -99 -83 -98 -70 -159 -121 -159 -134 -1 -7 -16 -20
-33 -29 -34 -17 -42 -23 -91 -68 -15 -14 -34 -26 -42 -26 -8 0 -15 -6 -15 -14
0 -7 -15 -19 -32 -26 -18 -6 -41 -16 -50 -21 -36 -19 -107 -29 -133 -19 -32
12 -33 43 -3 136 12 38 23 77 25 87 10 56 158 314 185 323 10 3 21 17 24 32 4
15 19 48 35 75 16 26 29 54 29 62 0 7 4 16 9 19 5 3 12 22 15 41 7 36 5 42
-68 186 -23 45 -65 65 -99 46 -37 -21 -67 -50 -67 -66 0 -20 -39 -101 -61
-126 -19 -22 -49 -105 -49 -136 0 -12 -9 -32 -20 -46 -11 -14 -20 -32 -20 -40
0 -8 -11 -35 -25 -61 -14 -26 -25 -54 -25 -64 0 -26 -11 -48 -24 -48 -24 0
-56 -47 -77 -111 -12 -35 -29 -72 -37 -81 -10 -12 -11 -18 -4 -18 16 0 16 -92
0 -108 -7 -7 -12 -45 -12 -94 -1 -75 2 -87 27 -122 15 -21 27 -44 27 -51 0
-16 76 -85 94 -85 8 0 16 -6 19 -13 3 -7 37 -19 75 -27 179 -33 302 15 480
188 105 102 106 103 126 83 16 -17 17 -22 6 -35 -9 -12 -10 -20 -1 -29 8 -10
7 -17 -1 -25 -9 -9 -8 -16 4 -29 9 -10 24 -34 33 -53 20 -39 22 -40 117 -106
62 -42 70 -45 112 -39 24 4 47 13 50 21 3 8 16 14 29 14 69 0 264 117 351 211
l39 42 33 -54 c18 -30 34 -59 34 -66 0 -7 9 -17 19 -23 11 -5 25 -16 33 -23
16 -16 100 -47 147 -54 58 -9 175 16 204 43 15 13 30 24 34 24 4 0 25 14 46
30 39 29 67 30 67 3 0 -18 41 -93 51 -93 4 0 30 -16 59 -36 41 -28 54 -33 66
-23 8 6 14 19 14 29 0 9 8 28 18 41 25 33 56 95 74 150 9 25 37 76 62 113 25
37 46 71 46 76 0 12 71 60 88 60 8 0 25 9 40 20 14 11 29 17 33 13 4 -4 10
-40 13 -79 5 -69 33 -155 55 -169 12 -7 44 -73 56 -112 4 -16 27 -30 86 -52
45 -17 90 -31 101 -31 11 0 35 -7 54 -16 29 -14 45 -14 121 -4 90 11 133 29
133 55 0 15 29 28 51 23 8 -2 39 -27 69 -55 38 -37 63 -53 82 -53 15 0 29 -4
33 -9 3 -6 27 -13 53 -16 26 -4 62 -11 81 -17 39 -12 144 6 162 28 6 8 19 14
28 14 21 0 121 38 141 53 8 7 32 21 52 31 70 36 83 58 82 144 -1 49 -8 88 -18
107 -9 17 -16 38 -16 48 0 19 -59 130 -72 135 -4 2 -8 9 -8 16 0 7 -11 25 -25
40 -13 14 -36 46 -50 70 -14 24 -36 55 -48 68 -73 80 -87 100 -87 128 0 17 8
38 18 48 40 38 73 62 84 62 6 0 21 9 33 20 36 33 182 52 207 26 8 -7 24 -16
35 -20 29 -9 37 -38 23 -80 -9 -27 -8 -39 2 -55 7 -12 18 -19 24 -17 7 3 31
-1 55 -9 45 -13 53 -31 27 -62 -8 -10 -10 -93 -6 -243 1 -8 7 -24 14 -35 8
-11 14 -27 14 -35 0 -25 70 -161 105 -205 18 -22 34 -45 36 -50 8 -22 106
-103 152 -125 26 -13 55 -32 64 -42 9 -10 27 -18 40 -18 14 0 36 -9 50 -20 37
-29 160 -21 207 15 18 14 38 25 43 25 14 0 68 62 87 99 9 16 16 58 18 93 2 62
0 66 -37 111 -22 26 -43 47 -48 47 -4 0 -25 -13 -45 -30 -20 -16 -57 -38 -82
-49 -42 -18 -51 -19 -100 -7 -69 16 -180 69 -209 100 -30 32 -71 151 -71 206
0 89 32 144 160 279 63 66 109 90 185 98 73 8 170 -28 200 -73 15 -23 22 -26
59 -21 32 4 49 15 77 46 36 40 38 41 101 41 l65 0 30 -47 c50 -78 51 -116 6
-413 -6 -39 -47 -136 -67 -160 -7 -8 -16 -26 -19 -40 -3 -14 -14 -51 -26 -82
-24 -66 -28 -155 -7 -183 10 -13 28 -20 60 -21 25 -1 53 -7 61 -14 20 -17 55
4 48 29 -4 17 1 20 38 23 38 3 45 7 49 28 7 33 58 134 93 185 15 22 27 45 27
53 0 7 18 32 40 56 22 24 40 50 40 58 0 8 13 28 30 44 16 16 30 37 30 47 0 10
20 38 45 63 25 24 45 49 45 54 0 5 18 24 41 42 22 18 73 61 112 95 111 96 248
142 297 98 25 -23 25 -37 0 -60 -11 -10 -20 -24 -20 -31 0 -17 -33 -88 -42
-92 -5 -2 -8 -11 -8 -19 0 -8 -7 -38 -17 -67 -24 -76 -25 -78 -31 -121 -8 -60
-2 -229 9 -239 5 -6 9 -17 9 -25 1 -33 37 -91 72 -114 46 -32 58 -35 143 -43
87 -8 111 -8 155 0 58 11 66 -3 37 -65 -13 -30 -32 -71 -41 -91 -8 -21 -20
-38 -26 -38 -5 0 -10 -9 -10 -19 0 -11 -4 -22 -9 -26 -6 -3 -16 -18 -24 -33
-8 -15 -21 -40 -31 -57 -9 -16 -28 -55 -41 -85 -14 -30 -36 -73 -50 -95 -13
-22 -24 -53 -24 -69 -1 -16 -13 -44 -27 -63 -14 -19 -23 -40 -21 -47 3 -7 26
-24 52 -36 60 -29 110 -23 145 20 16 19 36 31 56 34 69 7 102 50 149 191 15
44 36 96 47 115 11 19 33 68 49 108 16 40 36 83 44 96 9 13 18 32 20 42 10 45
25 85 39 106 9 12 16 29 16 37 0 8 16 49 36 90 20 42 54 114 75 161 22 47 48
103 59 125 11 22 20 42 19 45 -1 7 44 91 64 121 10 13 17 31 17 41 0 27 61
117 84 124 11 4 39 19 60 35 24 17 53 29 71 29 16 0 57 13 90 29 126 60 267
63 281 5 10 -39 -2 -143 -19 -162 -9 -9 -29 -46 -46 -83 -49 -101 -115 -170
-200 -209 -14 -6 -41 -26 -62 -44 -20 -19 -51 -37 -69 -41 -45 -10 -114 11
-125 38 -12 27 -69 35 -93 14 -10 -8 -25 -17 -34 -20 -10 -4 -18 -15 -18 -25
0 -10 -4 -22 -9 -28 -5 -5 -13 -44 -16 -86 -5 -62 -3 -82 11 -102 9 -14 23
-26 30 -26 8 0 24 -11 36 -25 12 -14 28 -25 35 -25 7 0 21 -4 31 -9 80 -41 91
-42 155 -24 34 9 64 20 67 23 3 4 20 10 38 13 19 4 53 19 75 34 23 16 55 35
70 43 16 8 38 27 48 42 11 15 45 42 74 60 30 18 55 35 55 38 0 3 20 28 45 55
25 28 45 55 45 61 0 7 15 34 34 62 19 27 33 52 30 55 -6 6 35 138 47 151 13
15 11 44 -3 49 -10 3 -10 10 2 31 11 22 12 31 2 46 -7 11 -12 45 -12 75 0 47
3 55 19 55 22 0 98 -58 106 -81 3 -9 1 -27 -4 -41 -5 -13 -12 -51 -16 -84 -4
-32 -16 -71 -27 -86 -16 -24 -18 -35 -9 -80 5 -33 6 -74 0 -108 -9 -55 -2
-186 10 -205 4 -5 13 -29 20 -51 8 -23 36 -67 65 -99 l51 -57 68 -1 c39 0 73
5 79 11 17 17 111 16 106 0 -3 -7 -15 -15 -29 -17 -13 -1 -38 -17 -55 -35 -17
-17 -41 -38 -54 -46 -12 -8 -28 -21 -36 -28 -13 -13 -97 -60 -199 -112 -33
-16 -71 -39 -85 -50 -14 -11 -29 -20 -34 -20 -5 0 -24 -11 -42 -25 -33 -25
-255 -135 -272 -135 -5 0 -15 -6 -21 -14 -7 -8 -47 -28 -91 -46 -44 -18 -84
-37 -89 -44 -6 -7 -30 -18 -53 -25 -73 -22 -221 -72 -253 -86 -40 -17 -103
-38 -195 -65 -41 -12 -89 -28 -106 -35 -18 -8 -49 -17 -70 -20 -39 -7 -133
-38 -167 -56 -10 -5 -22 -7 -28 -3 -5 3 -27 -2 -47 -11 -100 -45 -179 -66
-292 -80 -30 -4 -59 -10 -65 -15 -5 -4 -29 -10 -52 -13 -23 -3 -55 -14 -70
-25 -15 -10 -34 -17 -41 -15 -7 3 -34 -2 -60 -11 -43 -14 -149 -35 -262 -52
-25 -3 -52 -12 -60 -19 -8 -7 -40 -16 -70 -20 -30 -3 -121 -20 -201 -36 -80
-16 -157 -29 -171 -29 -15 0 -28 -5 -30 -11 -2 -6 -31 -17 -63 -25 -33 -7 -89
-20 -125 -28 -114 -28 -157 -37 -166 -35 -17 4 -89 -14 -104 -26 -16 -13 -22
-15 -205 -45 -127 -21 -154 -27 -385 -86 -80 -20 -163 -38 -185 -41 -22 -2
-67 -9 -100 -14 -33 -6 -72 -12 -87 -13 -15 -2 -33 -8 -41 -14 -7 -6 -65 -18
-128 -26 -64 -9 -144 -23 -180 -32 -68 -17 -118 -28 -184 -40 -22 -4 -44 -10
-50 -14 -16 -11 -221 -60 -253 -60 -12 0 -37 -13 -55 -30 -19 -16 -44 -30 -56
-30 -12 0 -39 -9 -61 -20 -22 -11 -46 -20 -53 -20 -8 0 -20 -6 -26 -14 -6 -7
-39 -24 -74 -36 -34 -12 -71 -29 -82 -36 -11 -8 -31 -14 -46 -14 -15 0 -32 -7
-39 -15 -7 -8 -16 -15 -21 -15 -9 0 -138 -76 -207 -121 -23 -16 -49 -29 -56
-29 -7 0 -31 -13 -52 -30 -22 -16 -56 -42 -76 -57 -20 -15 -39 -34 -43 -42
-16 -39 63 -55 120 -25 17 9 66 29 109 45 44 15 84 35 88 44 5 8 18 15 29 15
19 0 98 36 109 49 9 11 172 59 255 76 90 18 212 52 236 65 9 5 54 14 100 20
46 6 134 22 194 37 61 14 115 26 120 27 6 0 12 4 15 8 7 9 131 32 335 63 61 9
115 20 120 25 6 4 41 10 80 14 38 4 72 10 75 14 3 4 55 15 115 24 109 16 275
44 450 74 50 9 110 18 135 21 25 3 52 8 60 12 8 5 44 14 80 20 36 7 85 16 110
21 25 5 78 14 118 21 40 7 75 16 78 21 3 4 15 8 27 8 12 0 39 6 62 14 22 7 76
21 120 31 44 9 103 23 130 30 28 8 73 17 100 21 28 4 68 15 90 24 22 10 92 28
155 40 63 12 124 25 135 30 29 13 84 27 130 35 22 4 45 10 50 15 6 4 30 12 55
18 25 6 86 21 135 35 50 13 122 32 160 41 39 10 79 23 90 30 11 8 36 17 55 21
19 4 40 10 45 14 6 3 35 11 65 17 63 13 216 50 275 67 22 6 46 17 53 24 7 7
20 13 28 13 30 0 151 42 229 80 44 21 97 44 117 51 21 7 50 24 65 37 24 21 66
43 138 72 71 29 133 61 143 73 7 8 43 29 82 46 38 18 78 43 89 57 10 13 21 24
24 24 3 0 63 39 133 86 71 47 140 90 154 96 28 11 93 56 154 109 22 19 68 50
101 69 61 34 119 76 164 120 14 14 41 36 60 49 39 28 96 89 148 157 20 27 51
65 69 85 25 29 34 52 44 110 11 67 11 74 -6 86 -37 27 -78 16 -131 -36 -27
-27 -61 -52 -74 -56 -13 -4 -31 -14 -40 -21 -8 -8 -38 -19 -65 -25 -27 -5 -69
-15 -94 -20 -57 -13 -198 -26 -227 -21 -29 5 -32 36 -19 217 7 101 15 145 32
170 8 11 14 32 14 47 0 27 20 69 67 139 29 45 129 89 201 89 17 0 33 4 36 9 3
4 39 14 81 20 41 7 77 16 80 21 3 5 21 14 41 20 53 18 100 51 118 85 14 25 16
45 10 99 -6 62 -10 70 -38 87 -21 13 -39 17 -56 13 -78 -20 -112 -26 -177 -29
-60 -3 -73 -1 -73 11 0 20 17 51 40 74 9 9 25 41 35 69 9 28 21 51 26 51 5 0
9 7 9 16 0 9 8 35 19 58 53 117 58 126 94 175 9 13 17 31 17 40 0 25 -35 93
-58 114 -19 17 -20 17 -51 -18 -17 -20 -31 -42 -31 -50 0 -8 -8 -20 -18 -27
-10 -7 -30 -33 -44 -58 -15 -25 -51 -71 -81 -102 -30 -32 -69 -86 -87 -120
-18 -35 -54 -89 -81 -121 -27 -32 -49 -63 -49 -68 0 -5 -9 -18 -20 -29 -11
-11 -20 -31 -20 -44 0 -15 -11 -33 -27 -46 -25 -19 -38 -21 -133 -19 -59 1
-112 -1 -118 -5 -7 -4 -38 -9 -70 -10 -31 -2 -70 -10 -86 -19 -27 -15 -30 -14
-73 19 -80 61 -226 87 -335 59 -35 -9 -72 -24 -83 -34 -22 -19 -86 -51 -104
-51 -6 0 -23 18 -37 40 -14 21 -42 48 -60 60 l-35 20 -38 -25 c-28 -17 -41
-34 -46 -57 -4 -18 -18 -54 -31 -80 -13 -26 -24 -58 -24 -70 0 -13 -6 -32 -14
-43 -7 -11 -23 -45 -34 -75 -12 -30 -35 -82 -51 -115 -17 -33 -31 -68 -31 -78
0 -10 -9 -35 -20 -55 -41 -78 -67 -137 -63 -149 8 -22 -57 -133 -82 -143 -14
-5 -30 -21 -37 -35 -6 -14 -17 -25 -23 -25 -7 0 -32 -9 -57 -20 -57 -25 -157
-26 -165 -1 -3 9 -14 34 -24 57 -20 43 -19 115 2 140 5 7 12 25 15 41 5 31 39
124 60 165 8 14 14 35 14 45 0 10 5 24 11 30 6 6 16 20 23 30 31 53 77 121
100 149 14 17 31 56 37 85 6 30 16 64 21 76 7 13 7 35 1 59 -8 35 -12 39 -51
46 -23 4 -55 16 -71 27 -16 11 -40 25 -55 31 -24 9 -31 6 -61 -28 -20 -21 -35
-48 -35 -62 -1 -49 -34 -70 -114 -70 -52 0 -86 16 -86 40 0 5 -16 18 -36 30
-32 20 -39 21 -82 10 -26 -7 -63 -25 -82 -40 -19 -15 -45 -30 -56 -34 -41 -13
-130 -65 -150 -88 -11 -13 -36 -37 -56 -54 -19 -17 -57 -58 -83 -90 -74 -93
-99 -106 -94 -51 4 45 -10 114 -27 128 -8 6 -14 17 -14 25 0 7 -6 19 -13 26
-17 18 -70 99 -79 120 -4 9 -26 27 -50 39 -24 12 -48 28 -53 36 -9 12 -26 13
-83 7 -40 -3 -75 -11 -78 -15 -3 -5 -18 -9 -33 -9 -15 0 -42 -5 -59 -11 -28
-10 -35 -8 -63 15 -17 14 -39 26 -49 26 -10 0 -22 5 -25 10 -3 6 -16 10 -29
10 -12 0 -27 5 -34 12 -16 16 -187 17 -203 1 -7 -7 -25 -13 -40 -13 -15 0 -32
-6 -38 -14 -7 -8 -23 -17 -37 -20 -33 -9 -108 -66 -165 -127 -26 -27 -51 -49
-56 -49 -12 0 -105 98 -129 136 -16 24 -38 34 -83 39 -58 6 -137 29 -160 46
-27 22 -57 24 -98 8 -15 -6 -44 -11 -63 -10 -45 1 -99 -16 -126 -40 -11 -11
-48 -30 -83 -44 -40 -15 -78 -40 -107 -69 -43 -44 -44 -47 -44 -107 0 -34 -8
-87 -17 -117 -17 -53 -17 -55 5 -92 12 -22 22 -46 22 -55 0 -20 26 -60 68
-105 18 -19 41 -44 52 -56 11 -12 20 -25 20 -30 0 -5 18 -25 40 -44 54 -47 81
-94 87 -155 5 -46 2 -52 -28 -83 -29 -30 -38 -33 -71 -28 -20 3 -53 15 -72 27
-19 11 -51 21 -72 22 -21 2 -39 8 -42 15 -2 7 -9 12 -16 12 -25 0 -49 38 -43
67 5 28 -19 83 -36 83 -10 0 -75 -27 -97 -41 -8 -5 -25 -14 -38 -19 -13 -6
-38 -21 -56 -35 -27 -20 -44 -25 -95 -25 -66 0 -208 33 -229 54 -7 7 -13 38
-14 70 -1 31 -5 59 -10 62 -4 3 -8 13 -8 23 0 10 -7 24 -15 31 -12 10 -15 36
-15 116 l0 103 60 69 c50 58 69 72 108 82 26 7 72 26 102 42 42 21 69 28 115
28 64 0 89 13 119 62 17 25 16 29 -2 70 -11 24 -30 54 -41 68 -12 14 -29 35
-38 48 -28 36 -94 47 -162 26 -31 -10 -63 -23 -72 -31 -8 -7 -20 -13 -26 -13
-26 0 -94 -39 -148 -85 -60 -52 -79 -71 -153 -149 -24 -25 -47 -46 -51 -46 -8
0 1 88 14 131 9 35 33 93 77 187 21 46 38 86 38 90 0 3 11 20 25 38 13 17 29
51 34 74 5 23 16 49 25 59 9 10 16 22 16 28 0 6 16 35 36 64 20 30 49 94 65
143 16 49 35 96 43 105 14 16 61 116 64 136 2 10 13 35 51 113 29 60 27 78 -9
90 -45 16 -162 23 -190 11z m-1200 -1449 c0 -5 -7 -10 -15 -10 -8 0 -15 5 -15
10 0 6 7 10 15 10 8 0 15 -4 15 -10z m905 -40 c3 -5 2 -10 -4 -10 -5 0 -13 5
-16 10 -3 6 -2 10 4 10 5 0 13 -4 16 -10z m-105 -70 c5 0 13 8 19 18 8 13 12
14 22 5 16 -16 12 -20 -33 -28 -33 -6 -38 -5 -38 12 0 28 14 39 18 14 2 -12 7
-21 12 -21z m20 -51 c0 -6 -4 -7 -10 -4 -5 3 -10 11 -10 16 0 6 5 7 10 4 6 -3
10 -11 10 -16z"/>
<path d="M8790 4158 c-11 -12 -20 -30 -20 -40 0 -10 -4 -26 -9 -36 -5 -9 -15
-30 -22 -46 -8 -16 -26 -42 -42 -57 -23 -24 -27 -35 -26 -81 3 -72 37 -133 80
-142 88 -17 161 16 212 97 16 25 40 55 53 68 18 17 24 33 24 66 0 37 -6 49
-42 87 -103 107 -164 131 -208 84z"/>
<path d="M4042 4068 c-7 -7 -12 -18 -12 -26 0 -7 -19 -50 -42 -94 -37 -70 -43
-90 -42 -140 1 -50 5 -63 28 -86 23 -24 34 -27 84 -25 61 2 58 0 140 100 13
15 41 50 62 76 22 27 40 54 40 61 0 15 -53 72 -106 114 -34 26 -51 32 -91 32
-27 0 -54 -5 -61 -12z"/>
</g>
</svg>
